<?xml version="1.0" encoding="utf-8"?>
<!-- Generator: Adobe Illustrator 21.0.0, SVG Export Plug-In . SVG Version: 6.00 Build 0)  -->
<!DOCTYPE svg PUBLIC "-//W3C//DTD SVG 1.1//EN" "http://www.w3.org/Graphics/SVG/1.1/DTD/svg11.dtd">
<svg version="1.1" id="Layer_1" xmlns="http://www.w3.org/2000/svg" xmlns:xlink="http://www.w3.org/1999/xlink" x="0px" y="0px"
	 viewBox="0 0 1440 288" enable-background="new 0 0 1440 288" xml:space="preserve">
<path fill="#F76CB5" d="M170.3,198.8l-3,3.3c-2.6,2.6-5.1,4.9-7.9,7.2c-13.3,10.7-29.7,16.8-46.9,17.5H111c-0.5,0-1.6,0-1.6,0
	c-20.6-0.9-39.9-9.6-54.7-24.8c-15.4-15.9-24.1-37.1-24.1-59.6S39.3,98.9,54.7,83c14.7-15.2,34.1-24.1,54.7-24.8h3
	c20.8,0.7,40.2,9.6,54.9,24.8l1.4,1.4l-6.3,5c-1.2,1-3,0.9-4.1-0.3c-12.4-12.4-29.2-20-47.4-20.4c-38.5,0.9-69.6,33.6-69.6,73.8
	s31.1,72.9,69.6,73.6c18.5-0.5,35.1-8,47.4-20.3c0.6-0.6,0.9-1.4,0.9-2.2v-26c0-1.7-1.4-3.1-3.1-3.1h-46c-1.7,0-3.1-1.4-3.1-3.1
	v-4.6c0-1.7,1.4-3.1,3.1-3.1h56.9c1.7,0,3.1,1.4,3.1,3.1V198.8z"/>
<path fill="#F76CB5" d="M390.6,58.2h4.2c1.8,0,3.3,1.5,3.3,3.3v157.7c0,1.8-1.5,3.3-3.3,3.3h-4.2c-1.8,0-3.3-1.5-3.3-3.3V61.5
	C387.3,59.7,388.8,58.2,390.6,58.2z"/>
<g>
	<path fill="#F76CB5" d="M571.4,196.4H463.1c-3.1,0-4.9-3.4-3.2-6l93.4-141.1c1.7-2.6-0.1-6-3.2-6h-80.4c-2.1,0-3.9-1.7-3.9-3.9
		v-2.7c0-2.1,1.7-3.9,3.9-3.9h100.1c3.1,0,4.9,3.4,3.2,6l-93.2,141.2c-1.7,2.6,0.1,6,3.2,6h88.4c2.1,0,3.9,1.7,3.9,3.9v2.7
		C575.2,194.6,573.5,196.4,571.4,196.4z"/>
	<path fill="#F76CB5" d="M638.3,255.3H528.4c-2.6,0-4.2-2.9-2.7-5.1l94.6-143c1.4-2.2-0.1-5.1-2.7-5.1h-87.9c-1.8,0-3.3-1.5-3.3-3.3
		v-3.9c0-1.8,1.5-3.3,3.3-3.3h107.6c2.6,0,4.2,2.9,2.7,5.1l-94.4,143c-1.4,2.2,0.1,5.1,2.7,5.1h90.1c1.8,0,3.3,1.5,3.3,3.3v3.9
		C641.6,253.9,640.1,255.3,638.3,255.3z"/>
</g>
<path fill="#F76CB5" d="M790.3,215.1v3.2c0,2-1.6,3.7-3.7,3.7h-88.4c-2,0-3.7-1.6-3.7-3.7V61.9c0-2,1.6-3.7,3.7-3.7h85.6
	c2,0,3.7,1.6,3.7,3.7v3.2c0,2-1.6,3.7-3.7,3.7h-74.9c-2,0-3.7,1.6-3.7,3.7v75.1c0,2,1.6,3.7,3.7,3.7h55.7c2,0,3.7,1.6,3.7,3.7v3.4
	c0,2-1.6,3.7-3.7,3.7h-55.7c-2,0-3.7,1.6-3.7,3.7v42.2c0,2,1.6,3.7,3.7,3.7h77.7C788.6,211.5,790.3,213.1,790.3,215.1z"/>
<path fill="#F76CB5" d="M867,211.9h70.6c1.7,0,3,1.3,3,3v4.5c0,1.7-1.3,3-3,3h-81.4c-1.7,0-3-1.3-3-3V61.2c0-1.7,1.3-3,3-3h4.8
	c1.7,0,3,1.3,3,3v147.7C864,210.6,865.4,211.9,867,211.9z"/>
<path fill="#F76CB5" d="M1084.3,198.4c-15.6,15.4-36.2,23.8-57.9,23.8H992c-1,0-1.9-0.8-1.9-1.9V65.1c0-1.5,1.1-2.8,2.5-3.1
	c5.4-1,18.9-3.3,33.8-3.8c19.4-0.6,42.3,8.6,57.9,24.1c15.4,15.4,23.8,36.2,23.8,57.9C1108.2,162.2,1099.8,182.7,1084.3,198.4z
	 M1097.6,143.9c2.1-40.9-30.7-74.9-71.4-74.9c0,0,15.1-0.7,0-0.2c-14.1,0.4-24,2.6-25.3,2.9c-0.1,0-0.1,0.1-0.1,0.2v139.7
	c0,0.1,0.1,0.2,0.2,0.2l22.9,0C1062.3,211.7,1095.6,182.3,1097.6,143.9z"/>
<path fill="#F76CB5" d="M1210.2,59.4l63.2,160.5c0.5,1.2-0.4,2.5-1.7,2.5h-7.5c-0.8,0-1.4-0.5-1.7-1.2l-11.5-29.1
	c-0.4-0.9-1.4-1.4-2.3-1.1c-8.6,3.1-22.3,6.4-42,6.4c-19.9,0-33.8-3.5-42.2-6.6c-1-0.4-2,0.1-2.4,1.1l-11.3,29.3
	c-0.3,0.7-1,1.2-1.7,1.2h-7.5c-1.3,0-2.2-1.3-1.7-2.5L1202,59.4c0.3-0.7,1-1.2,1.7-1.2h4.7C1209.2,58.2,1209.9,58.7,1210.2,59.4z
	 M1245.7,178.9l-37.8-96.1c-0.6-1.6-2.8-1.6-3.4,0l-37.8,97.6c1.4,0.5,3,1.2,4.9,1.6c7,2.3,18.7,4.9,35,4.9c18.1,0,30.6-3,38-5.6
	C1245.6,180.9,1246.1,179.8,1245.7,178.9z"/>
<path fill="#F76CB5" d="M1394.5,214l-1.4,1.4c-8.4,7.2-19.4,11.4-31.3,11.7h-1.2c-12.1,0-23.4-4-32.2-11.2
	c-6.9-5.9-11.7-13.5-13.7-21.9c-0.5-2,0.8-4.1,2.9-4.4l3.6-0.6c1.7-0.3,3.5,0.8,3.9,2.5c1.5,6.1,5.2,11.7,10.4,16.1
	c14.5,11.9,37.1,11.7,51.1-0.7c7.9-7.9,12.1-18.5,11.4-29.2c-0.5-10.5-5.4-19.6-13.8-25.7c-8.9-6.5-17.5-8.4-25.9-10.5
	c-10-2.3-20.6-4.7-29.9-14.2c-8.9-9.1-13.8-20.1-13.3-31.1c0.5-9.8,4.7-18.9,12.6-26.4c9.8-8.4,20.6-11.7,32.2-11.7
	c12.1,0,23.6,4.2,32.2,11.9c4.4,3.8,7.8,8.5,10,13.5c1,2.1-0.4,4.6-2.7,4.9l-3.7,0.6c-1.6,0.2-3-0.6-3.7-2.1c-1.6-3.3-3.9-6.4-6.9-9
	c-13.8-12.1-36-12.4-49.7-0.7c-6.1,5.6-9.3,12.1-9.6,19.4c-0.5,7.9,3.3,15.9,10.3,23.1c7,7.2,15.2,9.1,24.5,11.4
	c9.1,2.1,19.4,4.4,29.9,12.4c10.7,7.7,17.3,20.1,18.2,33.4C1409.4,190.9,1404.3,204.2,1394.5,214z"/>
<path fill="#F76CB5" d="M310.6,156.6c12.6-9.3,18.9-24.1,18.9-43.7c0-19.6-6.3-34.3-18.9-43.7c-28.7-21-78.9-5.6-81-4.9l-3.7,1.2
	v79.8c0,1.2-1.3,2-2.4,1.5c-2.4-1.3-4.7-2.7-7-4.3c-0.7-0.5-1.7-0.3-2.2,0.4l-3.3,4.6c-0.5,0.7-0.4,1.8,0.4,2.3
	c4.3,2.9,8.8,5.4,13.5,7.6c0.6,0.3,0.9,0.8,0.9,1.5v64.6c0,0.9,0.7,1.6,1.6,1.6h7.5c0.9,0,1.6-0.7,1.6-1.6v-58c0-1,1-1.8,2-1.6
	c8.7,2,22.8,4.5,37.2,3.6c0.6,0,1.2,0.3,1.5,0.8l33.1,56c0.3,0.5,0.8,0.8,1.4,0.8h8.6c1.3,0,2-1.4,1.4-2.5l-32.4-54.7
	c-0.6-0.9,0-2.1,1-2.4C297.7,163.8,304.4,160.9,310.6,156.6z M236.6,151.1V74.7c0-0.7,0.5-1.4,1.2-1.6c12.6-3.2,46.9-9.7,66.5,4.7
	c9.6,7.2,14.5,18.9,14.5,35s-4.9,27.8-14.5,35c-19.7,14.5-54,7.9-66.5,4.7C237,152.5,236.6,151.9,236.6,151.1z"/>
<path fill="#F76CB5" d="M1210.4,196.2c-1.5,0-2.8,0-3.9,0c-9.6-0.1-19.3-1.2-28.7-3.2c-1.5-0.3-2.5-1.9-2.1-3.4l0.8-3.3
	c0.3-1.5,1.8-2.4,3.3-2.1c8.9,1.9,17.9,2.9,26.9,3c5.7,0.1,17.5,0.3,30.4-2.9c15.6-3.8,30-11.5,43-23c1.1-1,2.8-0.9,3.9,0.2l2.3,2.5
	c1.1,1.1,1,2.9-0.2,4c-14.1,12.5-29.9,20.9-46.9,25C1227.6,195.8,1217.1,196.2,1210.4,196.2z"/>
<path fill="#F76CB5" d="M256.9,165.4c-11.7-2.1-21.3-3.6-27.5-6.3c-1.4-0.6-2.6-1.1-3.6-1.6c-8.8-4-17.2-8.8-25-14.5
	c-1.3-0.9-1.5-2.7-0.6-3.9l2-2.8c0.9-1.2,2.6-1.5,3.8-0.6c7.4,5.3,15.3,9.8,23.5,13.6c5.2,2.3,15.9,7.2,29.1,9.5L256.9,165.4z"/>
</svg>
