<svg id="Layer_1" data-name="Layer 1" xmlns="http://www.w3.org/2000/svg" viewBox="0 0 507 81.91"><defs><style>.cls-1{fill:#fff;}</style></defs><title>Artboard 2</title><g id="Logo"><path class="cls-1" d="M51.38,61.13l-1.12,1.2c-.94.95-1.89,1.8-2.92,2.66a29.26,29.26,0,0,1-17.27,6.44H29A29.75,29.75,0,0,1,8.85,62.34a31.55,31.55,0,0,1,0-43.82A29.37,29.37,0,0,1,29,9.41h1.12a29.4,29.4,0,0,1,20.19,9.11l.52.52-2.3,1.86A1.12,1.12,0,0,1,47,20.8a25.56,25.56,0,0,0-17.42-7.52C15.38,13.62,4,25.65,4,40.43s11.43,26.81,25.6,27.07A25.45,25.45,0,0,0,47,60a1.15,1.15,0,0,0,.33-.81V49.63a1.13,1.13,0,0,0-1.13-1.13H29.31a1.13,1.13,0,0,1-1.13-1.13v-1.7a1.13,1.13,0,0,1,1.13-1.13H50.26a1.13,1.13,0,0,1,1.13,1.13Z"/><path class="cls-1" d="M132.42,9.41H134a1.2,1.2,0,0,1,1.2,1.2v58a1.2,1.2,0,0,1-1.2,1.2h-1.55a1.2,1.2,0,0,1-1.2-1.2v-58A1.2,1.2,0,0,1,132.42,9.41Z"/><path class="cls-1" d="M198.92,60.23H159.1A1.43,1.43,0,0,1,157.91,58L192.26,6.08a1.43,1.43,0,0,0-1.19-2.22H161.48a1.43,1.43,0,0,1-1.43-1.43v-1A1.43,1.43,0,0,1,161.48,0h36.81a1.43,1.43,0,0,1,1.19,2.22L165.21,54.15a1.43,1.43,0,0,0,1.19,2.22h32.52a1.43,1.43,0,0,1,1.43,1.43v1A1.43,1.43,0,0,1,198.92,60.23Z"/><path class="cls-1" d="M223.55,81.91H183.11a1.21,1.21,0,0,1-1-1.88l34.8-52.6a1.21,1.21,0,0,0-1-1.88H183.54a1.21,1.21,0,0,1-1.21-1.21V22.9a1.21,1.21,0,0,1,1.21-1.21h39.57a1.21,1.21,0,0,1,1,1.88L189.4,76.17a1.21,1.21,0,0,0,1,1.88h33.14a1.21,1.21,0,0,1,1.21,1.21V80.7A1.21,1.21,0,0,1,223.55,81.91Z"/><path class="cls-1" d="M279.46,67.12v1.17a1.35,1.35,0,0,1-1.35,1.35H245.58a1.35,1.35,0,0,1-1.35-1.35V10.76a1.35,1.35,0,0,1,1.35-1.35h31.5a1.35,1.35,0,0,1,1.35,1.35v1.17a1.35,1.35,0,0,1-1.35,1.35H249.53a1.35,1.35,0,0,0-1.35,1.35V42.26a1.35,1.35,0,0,0,1.35,1.35H270A1.35,1.35,0,0,1,271.38,45v1.26A1.35,1.35,0,0,1,270,47.56H249.53a1.35,1.35,0,0,0-1.35,1.35V64.43a1.35,1.35,0,0,0,1.35,1.35h28.58A1.35,1.35,0,0,1,279.46,67.12Z"/><path class="cls-1" d="M307.7,65.95h26a1.1,1.1,0,0,1,1.1,1.1v1.66a1.1,1.1,0,0,1-1.1,1.1H303.75a1.1,1.1,0,0,1-1.1-1.1V10.51a1.1,1.1,0,0,1,1.1-1.1h1.75a1.1,1.1,0,0,1,1.1,1.1V64.84A1.1,1.1,0,0,0,307.7,65.95Z"/><path class="cls-1" d="M387.64,61a30.18,30.18,0,0,1-21.31,8.76H353.66a.7.7,0,0,1-.7-.7V11.94a1.14,1.14,0,0,1,.93-1.13,83.67,83.67,0,0,1,12.44-1.4c7.13-.22,15.55,3.18,21.31,8.85a30.39,30.39,0,0,1,0,42.7Zm4.86-20a26.27,26.27,0,0,0-26.26-27.55s5.56-.26,0-.09A52.49,52.49,0,0,0,357,14.33a.06.06,0,0,0,0,.06v51.4a.07.07,0,0,0,.07.07h8.43C379.55,65.86,391.79,55,392.51,40.92Z"/><path class="cls-1" d="M433.93,9.84l23.26,59a.68.68,0,0,1-.63.93h-2.75a.68.68,0,0,1-.63-.43L449,58.66a.67.67,0,0,0-.86-.39,45.48,45.48,0,0,1-15.45,2.35,44.86,44.86,0,0,1-15.53-2.42.67.67,0,0,0-.87.39L412.1,69.38a.68.68,0,0,1-.63.44h-2.75a.68.68,0,0,1-.63-.92l22.84-59a.68.68,0,0,1,.63-.43h1.74A.68.68,0,0,1,433.93,9.84Zm13.07,44L433.11,18.42a.68.68,0,0,0-1.27,0L418,54.35c.52.17,1.12.43,1.8.6a41.27,41.27,0,0,0,12.89,1.8,41.44,41.44,0,0,0,14-2.08A.67.67,0,0,0,447,53.79Z"/><path class="cls-1" d="M501.73,66.72l-.52.52a18.1,18.1,0,0,1-11.51,4.3h-.43a18.59,18.59,0,0,1-11.86-4.12,15.5,15.5,0,0,1-5.05-8,1.31,1.31,0,0,1,1.05-1.62l1.32-.2a1.26,1.26,0,0,1,1.43.92A11.52,11.52,0,0,0,480,64.4a14.88,14.88,0,0,0,18.82-.26A13.92,13.92,0,0,0,503,53.4,12.09,12.09,0,0,0,498,44c-3.27-2.41-6.44-3.09-9.54-3.87-3.69-.86-7.56-1.72-11-5.24-3.27-3.35-5.07-7.39-4.9-11.43a14.06,14.06,0,0,1,4.64-9.71A17.45,17.45,0,0,1,489,9.41a17.73,17.73,0,0,1,11.86,4.38,14.75,14.75,0,0,1,3.69,5,1.3,1.3,0,0,1-1,1.81l-1.38.21a1.32,1.32,0,0,1-1.37-.76,10.54,10.54,0,0,0-2.52-3.31,14.39,14.39,0,0,0-18.3-.26,10,10,0,0,0-3.52,7.13c-.17,2.92,1.2,5.84,3.78,8.51s5.58,3.35,9,4.21,7.13,1.63,11,4.55A16.49,16.49,0,0,1,507,53.14,17.85,17.85,0,0,1,501.73,66.72Z"/><path class="cls-1" d="M103,45.59c4.64-3.44,7-8.85,7-16.07s-2.32-12.63-7-16.07c-10.57-7.73-29-2.06-29.81-1.8l-1.37.43V41.44a.6.6,0,0,1-.89.54q-1.32-.72-2.57-1.57a.59.59,0,0,0-.82.14l-1.2,1.69a.61.61,0,0,0,.15.85,33.67,33.67,0,0,0,5,2.79.59.59,0,0,1,.35.54V70.17a.6.6,0,0,0,.6.6h2.76a.6.6,0,0,0,.6-.6V48.84a.6.6,0,0,1,.73-.58,49.52,49.52,0,0,0,13.69,1.31.59.59,0,0,1,.55.29L102.9,70.48a.6.6,0,0,0,.52.29h3.16a.6.6,0,0,0,.51-.9L95.15,49.73a.59.59,0,0,1,.38-.88A21.68,21.68,0,0,0,103,45.59Zm-27.24-2V15.47a.58.58,0,0,1,.44-.58c4.62-1.17,17.25-3.58,24.48,1.75,3.52,2.66,5.33,7,5.33,12.89s-1.8,10.22-5.33,12.89c-7.23,5.32-19.86,2.92-24.48,1.75A.58.58,0,0,1,75.75,43.58Z"/><path class="cls-1" d="M434,60.16h-1.43A54.92,54.92,0,0,1,422,59a1,1,0,0,1-.78-1.24l.29-1.23a1,1,0,0,1,1.2-.76,51.57,51.57,0,0,0,9.91,1.11,44,44,0,0,0,11.2-1.06,36.92,36.92,0,0,0,15.82-8.45,1,1,0,0,1,1.42.06l.86.93a1,1,0,0,1-.07,1.46A40.19,40.19,0,0,1,444.6,59,45.05,45.05,0,0,1,434,60.16Z"/><path class="cls-1" d="M83.24,48.82c-4.3-.76-7.85-1.32-10.13-2.31l-1.31-.59A54.92,54.92,0,0,1,62.6,40.6a1,1,0,0,1-.22-1.45l.75-1a1,1,0,0,1,1.4-.21,51.57,51.57,0,0,0,8.64,5,44,44,0,0,0,10.69,3.51Z"/></g></svg>